<svg id="Group_242" data-name="Group 242" xmlns="http://www.w3.org/2000/svg" width="58.913" height="81.209" viewBox="0 0 58.913 81.209">
  <g id="Group_228" data-name="Group 228" transform="translate(8.205 0)">
    <ellipse id="Ellipse_22" data-name="Ellipse 22" cx="25.354" cy="25.354" rx="25.354" ry="25.354" fill="#f5f4ba" opacity="0.48"/>
    <circle id="Ellipse_23" data-name="Ellipse 23" cx="16.042" cy="16.042" r="16.042" transform="translate(25.354 48.04) rotate(-135)" fill="#fff" opacity="0.4"/>
    <ellipse id="Ellipse_24" data-name="Ellipse 24" cx="11.057" cy="11.057" rx="11.057" ry="11.057" transform="matrix(-0.926, -0.378, 0.378, -0.926, 31.404, 39.774)" fill="#fff" opacity="0.86"/>
  </g>
  <path id="Path_258" data-name="Path 258" d="M260.519,243.885c-12.662,0-22.926,6.381-22.926,14.253" transform="translate(-234.964 -230.809)" fill="none" stroke="#f23d6d" stroke-miterlimit="10" stroke-width="1"/>
  <rect id="Rectangle_72" data-name="Rectangle 72" width="2.027" height="53.879" transform="translate(1.61 27.33)" fill="#262259"/>
  <rect id="Rectangle_73" data-name="Rectangle 73" width="1.903" height="48.388" transform="translate(2.624 32.629)" fill="#313743"/>
  <rect id="Rectangle_74" data-name="Rectangle 74" width="1.903" height="48.388" transform="translate(0.721 32.629)" fill="#313743"/>
  <path id="Path_259" data-name="Path 259" d="M291.193,407.137h-2.737a1.256,1.256,0,0,0-1.255,1.256h5.248A1.256,1.256,0,0,0,291.193,407.137Z" transform="translate(-287.2 -327.233)" fill="#313743"/>
  <g id="Group_229" data-name="Group 229" transform="translate(24.033 11.959)">
    <path id="Path_260" data-name="Path 260" d="M213.016,243.885a1.726,1.726,0,0,1,.547,1.206v.75H194.333v-.75a1.726,1.726,0,0,1,.547-1.206Z" transform="translate(-194.333 -242.767)" fill="#f23d6d"/>
    <path id="Path_261" data-name="Path 261" d="M198.86,241.155h11.757a4.54,4.54,0,0,1,3.19,1.118H195.67A4.541,4.541,0,0,1,198.86,241.155Z" transform="translate(-195.123 -241.155)" fill="#f23d6d"/>
  </g>
  <path id="Path_262" data-name="Path 262" d="M194.214,248.442H212.6c.44,0,.8-.222.8-.5h0c0-.274-.357-.5-.8-.5H194.214c-.44,0-.8.222-.8.5h0C193.417,248.221,193.774,248.442,194.214,248.442Z" transform="translate(-169.759 -232.915)" fill="#262259"/>
</svg>
